<?xml version="1.0" standalone="no"?>
<!DOCTYPE svg PUBLIC "-//W3C//DTD SVG 20010904//EN"
 "http://www.w3.org/TR/2001/REC-SVG-20010904/DTD/svg10.dtd">
<svg version="1.0" xmlns="http://www.w3.org/2000/svg"
 width="513.000000pt" height="513.000000pt" viewBox="0 0 513.000000 513.000000"
 preserveAspectRatio="xMidYMid meet">
<metadata>
Created by potrace 1.11, written by Peter Selinger 2001-2013
</metadata>
<g transform="translate(0.000000,513.000000) scale(0.100000,-0.100000)"
fill="#000000" stroke="none">
<path d="M3017 4714 c-1 -1 -42 -4 -92 -8 -49 -3 -101 -8 -115 -11 -50 -8
-146 -25 -175 -29 -16 -3 -126 -26 -243 -51 -118 -24 -235 -47 -260 -51 -26
-3 -65 -9 -87 -14 -166 -35 -350 -31 -443 10 l-44 20 6 -54 c12 -113 67 -211
147 -262 79 -49 170 -50 423 -4 65 12 120 19 123 17 2 -3 -12 -87 -32 -188
-20 -101 -39 -197 -42 -214 -3 -16 -16 -84 -30 -150 -13 -66 -27 -131 -29
-145 -4 -19 -129 -647 -159 -795 -3 -16 -12 -64 -20 -105 -8 -41 -17 -86 -20
-100 -3 -14 -7 -36 -10 -50 -3 -14 -7 -36 -10 -50 -3 -14 -12 -59 -20 -100 -8
-41 -17 -86 -20 -100 -3 -14 -8 -38 -10 -55 -3 -16 -8 -37 -10 -45 -2 -8 -6
-28 -9 -44 -3 -16 -10 -52 -16 -80 -6 -28 -12 -61 -14 -72 -35 -182 -163 -621
-217 -741 -34 -77 -90 -185 -113 -219 -128 -189 -316 -290 -556 -299 -266 -10
-460 88 -561 286 -27 52 -45 118 -55 204 -3 27 -7 51 -8 52 -8 8 -131 -85
-178 -135 -206 -216 -126 -451 211 -617 199 -99 452 -117 690 -50 165 47 318
129 478 258 83 66 220 200 278 271 49 60 148 205 181 266 75 139 99 186 143
290 92 213 173 479 235 765 l33 150 32 -55 c50 -87 246 -389 373 -576 98 -145
330 -467 348 -484 3 -3 24 -30 47 -60 23 -30 50 -64 60 -75 10 -11 52 -61 93
-110 92 -111 321 -343 414 -420 134 -111 323 -220 420 -241 103 -23 203 -23
311 2 161 36 402 180 534 320 87 90 124 165 129 256 3 38 1 68 -3 68 -5 0 -26
-15 -49 -33 -266 -216 -529 -294 -708 -210 -372 174 -924 846 -1488 1810 l-80
136 153 102 c83 57 174 118 200 136 57 40 443 327 472 351 11 9 85 69 165 134
80 64 147 119 150 123 3 3 34 30 70 60 186 153 434 393 491 476 30 44 34 58
34 110 0 47 -6 70 -27 106 -50 85 -168 183 -304 252 l-51 26 -17 -52 c-60
-173 -202 -418 -354 -607 -159 -199 -366 -406 -612 -611 -123 -103 -388 -304
-505 -385 -33 -23 -93 -64 -134 -92 -41 -29 -76 -50 -78 -48 -2 2 6 55 18 117
26 138 22 118 53 269 13 69 27 136 29 150 3 14 33 164 67 333 34 170 63 319
66 330 2 12 11 56 19 97 8 41 17 86 20 100 14 74 16 79 43 84 109 21 176 26
307 27 168 0 281 -26 406 -92 33 -18 61 -30 64 -28 8 8 -33 176 -58 234 -50
118 -134 182 -268 205 -56 9 -196 19 -202 14z"/>
</g>
</svg>
